<svg width="16" height="16" viewBox="0 0 16 16" fill="none" xmlns="http://www.w3.org/2000/svg">
<path d="M5.24275 4.49778C5.24275 4.49778 4.154 4.16653 3.254 5.17403C2.20775 6.34653 2.7265 8.13653 3.2015 9.46403C3.6765 10.7915 3.894 11.2678 4.1315 12.394C4.31025 13.2365 4.509 14.7365 6.01775 15.224C7.07275 15.564 8.159 14.7953 8.159 14.7953C8.159 14.7953 8.60525 15.294 9.59025 15.4128C10.6565 15.5403 11.7877 15.209 12.1815 14.279C12.3877 13.7928 12.5877 12.234 12.729 11.2428C12.914 9.94278 13.5752 8.53153 13.7402 7.41278C13.8802 6.45778 13.6452 4.24903 10.6815 4.19028C9.64525 4.17028 8.48025 4.58153 8.48025 4.58153C8.48025 4.58153 7.56775 4.10278 6.8715 4.02528C5.5315 3.87528 5.24275 4.49778 5.24275 4.49778Z" fill="#7CB342"/>
<path d="M12.1223 4.4467C11.7398 4.2792 11.2823 4.1242 10.4636 4.07295C9.30359 4.00045 8.48234 4.58045 8.48234 4.58045C8.48234 4.58045 7.56984 4.1017 6.87359 4.0242C5.53234 3.8742 5.11984 4.47045 5.11984 4.47045C5.11984 4.47045 5.33859 4.50795 5.69109 4.63795C5.97734 4.74295 5.87109 4.99795 5.63484 5.0217C5.17109 5.06795 4.79234 5.37295 4.74609 5.53795C4.74609 5.53795 5.48734 5.2192 6.25984 5.46295C7.28734 5.78795 7.56484 6.55045 7.56484 6.55045C7.56484 6.55045 8.14359 5.87545 9.51859 5.56295C10.8261 5.26545 11.7661 5.8292 11.7661 5.8292C11.6898 5.4992 11.5011 5.3342 11.3323 5.1767C11.0286 4.89295 11.1286 4.6442 11.4386 4.5567C11.6961 4.4842 12.1223 4.4467 12.1223 4.4467Z" fill="#558B2F"/>
<path d="M5.05518 1.39616C5.06643 1.99366 5.52143 2.27116 5.73018 2.28366C6.15268 2.30741 6.46643 1.79491 7.25393 2.55116C7.57393 2.85866 7.69893 3.29616 7.68893 3.73116C7.68518 3.87491 7.72018 4.41241 7.46768 4.53241C7.38893 4.56991 7.33643 4.59866 7.09143 4.50491C6.81768 4.39991 6.57393 4.65991 6.57393 4.65991L7.04393 5.19616L8.20768 5.57366L9.37518 5.34116L10.0502 4.74741C10.0502 4.74741 9.73643 4.50366 9.46393 4.60116C9.31643 4.65366 9.03143 4.56741 9.03018 4.39491C9.02518 4.03116 9.04018 3.68491 8.97268 3.32241C8.86018 2.72366 8.60518 2.15116 8.19643 1.69616C7.61018 1.04366 6.77143 0.704905 5.92018 0.567405C5.22143 0.456155 5.04393 0.806155 5.05518 1.39616Z" fill="#E0E080"/>
<path d="M7.78203 1.31889C7.24578 0.908887 6.58578 0.675137 5.91703 0.567637C5.69203 0.531387 5.52203 0.543887 5.39453 0.595137C5.65453 0.601387 6.15828 0.728887 6.97203 1.29014C7.48453 1.64264 8.49703 2.90889 7.65453 4.21764C7.63203 4.32639 7.59203 4.42514 7.52453 4.48764C7.73328 4.39389 8.14078 4.07264 8.23328 3.21764C8.33078 2.31264 8.11578 1.71514 7.78203 1.31889Z" fill="#C4C451"/>
<path opacity="0.6" d="M7.20397 9.54321C7.19397 10.017 7.27022 11.0745 7.56522 12.5807C7.81647 13.8632 7.56147 14.7945 7.22772 15.2107C7.76772 15.0645 8.15772 14.797 8.15772 14.797C8.15772 14.797 8.29647 14.282 8.30522 13.7557C8.31647 13.1232 8.05272 11.8532 7.74397 10.8457C7.52647 10.1382 7.46147 9.07071 7.45147 8.47071C7.45147 8.46946 7.22147 8.68696 7.20397 9.54321Z" fill="#33691E"/>
<path opacity="0.75" d="M6.48202 7.90834C6.34952 7.92334 6.22952 7.83959 6.12952 7.75834C5.76452 7.45959 5.55702 7.20959 5.14702 6.96084C4.82952 6.76834 4.20327 6.63834 4.41327 6.14709C4.51452 5.91084 4.90327 5.88084 5.16702 5.92584C6.08577 6.08084 6.49452 6.62084 6.68827 7.29584C6.72202 7.41334 6.76702 7.53209 6.74077 7.65334C6.71577 7.77334 6.61827 7.88959 6.48827 7.90834H6.48202ZM9.35702 6.57459C9.96202 6.21459 10.8545 6.22209 11.602 6.60459C11.787 6.69959 11.9645 6.82334 12.072 7.00209C12.1533 7.13709 12.1745 7.33959 12.0458 7.43084C11.9383 7.50584 11.7908 7.46084 11.6658 7.42084C10.9158 7.18334 10.067 7.27334 9.38452 7.66459C9.12702 7.81209 8.57452 8.35834 8.41202 7.97584C8.25077 7.58959 8.60452 7.02209 9.35702 6.57459Z" fill="#BBE68B"/>
</svg>
