<svg width="16" height="16" viewBox="0 0 16 16" fill="none" xmlns="http://www.w3.org/2000/svg">
<path d="M6.02172 8.55604L0.836724 8.74354C0.836724 8.74354 0.507974 8.41479 0.555474 8.29729C0.602974 8.17979 4.89672 4.82479 5.06047 4.84854C5.22422 4.87229 5.60047 5.27104 5.90547 5.12979C6.21047 4.98854 5.90547 4.16729 5.99922 4.05104C6.09297 3.93354 9.44797 2.12729 9.65922 2.03354C9.87047 1.93979 10.058 1.72854 10.4805 1.82229C10.903 1.91604 11.9592 2.10354 13.108 2.87854C14.2567 3.65354 15.4542 4.54479 15.3605 5.03729C15.2667 5.52979 6.02172 8.55604 6.02172 8.55604Z" fill="#FFE265"/>
<path d="M2.43219 14.4459C3.58219 14.3046 14.3047 12.0059 14.7509 11.9359C15.1972 11.8659 15.4784 11.4434 15.4784 10.9734C15.4784 10.5034 15.3609 5.03711 15.3609 5.03711C15.3609 5.03711 14.8447 5.20086 14.2347 5.34211C13.6247 5.48211 8.62594 6.70211 6.65594 7.14836C4.68594 7.59461 1.54094 8.41586 1.18844 8.41586C0.835938 8.41586 0.554688 8.29836 0.554688 8.29836C0.554688 8.29836 0.648438 13.1784 0.672188 13.5309C0.695938 13.8834 0.859687 14.3046 1.25844 14.4221C1.65719 14.5396 1.91719 14.5084 2.43219 14.4459Z" fill="#FEB502"/>
<path d="M9.37109 3.19413C9.37109 3.49413 9.67609 3.69288 10.1811 3.67788C10.7323 3.66163 10.8848 3.33413 10.8673 3.12413C10.8498 2.91288 10.5961 2.72788 10.0936 2.73663C9.62734 2.74538 9.37109 2.93038 9.37109 3.19413Z" fill="#FF8B0D"/>
<path d="M3.74183 6.93548C2.92933 7.20923 3.02058 7.92048 3.25808 8.07923C3.49558 8.23798 3.81183 8.22923 4.18183 8.09673C4.55183 7.96423 4.78683 7.81298 4.82433 7.56548C4.85933 7.33048 4.55183 6.66173 3.74183 6.93548ZM11.1243 4.90298C10.5793 4.92798 9.97683 5.31923 9.75183 5.69548C9.51433 6.09173 9.49683 6.55798 10.0418 6.84798C10.5868 7.13798 12.5143 6.39923 12.4181 5.72173C12.3218 5.04298 11.6968 4.87673 11.1243 4.90298ZM9.23308 10.3842C9.23308 10.3842 10.0068 9.81173 10.0068 9.40798C10.0068 9.00298 9.67308 8.04673 8.25558 7.97423C6.92683 7.90548 6.10808 9.71673 6.97933 10.6492C7.85058 11.5817 8.37808 11.1592 8.70433 11.0717C9.03058 10.983 9.23308 10.3842 9.23308 10.3842ZM5.40558 12.0117C5.40558 12.0117 6.17433 11.5305 5.58433 11.003C5.16933 10.6317 4.61433 10.7992 4.33183 11.088C3.97058 11.458 4.06808 12.0467 4.40183 12.3105C4.73683 12.5755 5.40558 12.0117 5.40558 12.0117ZM2.80058 9.84798C2.80058 9.84798 2.71308 9.57173 2.39933 9.46048C2.04683 9.33548 1.52058 9.77423 1.74558 10.243C1.94808 10.6655 2.39683 10.5417 2.39683 10.5417L2.80058 9.84798ZM14.0543 10.2517C14.1306 10.1692 14.6293 9.80923 14.6293 9.53548C14.6293 9.26298 13.8781 8.42048 12.9193 9.05423C11.9606 9.68798 12.4618 10.6467 12.7256 10.8055C12.9893 10.9642 13.7206 10.613 14.0543 10.2517Z" fill="#ED6B31"/>
<path d="M3.8559 7.36574C3.32215 7.55074 3.1209 7.92824 3.25465 8.07824C3.3959 8.23699 3.7034 8.34199 4.23965 8.14824C4.65465 7.99824 4.86465 7.74699 4.82965 7.52324C4.80465 7.36074 4.33965 7.19824 3.8559 7.36574ZM2.0759 9.82824C1.84215 10.1207 2.03215 10.4532 2.25215 10.532C2.47215 10.6107 2.85965 10.3732 2.8334 9.97824C2.8059 9.58199 2.28715 9.56449 2.0759 9.82824ZM4.79465 11.422C4.29215 11.8295 4.2784 12.2282 4.47215 12.3632C4.60715 12.4582 5.10465 12.6557 5.55965 12.3195C5.89715 12.0707 5.9034 11.5482 5.79715 11.2982C5.7084 11.0857 5.21715 11.0782 4.79465 11.422ZM7.84465 9.20074C7.17215 9.85449 7.01215 10.9157 7.67215 11.1657C8.2534 11.3857 9.0884 11.2532 9.5809 10.647C10.0984 10.0095 10.1534 9.30574 9.8209 8.89074C9.4234 8.39199 8.36465 8.69699 7.84465 9.20074ZM10.9009 5.55324C10.0209 5.85199 9.50215 6.48574 9.9509 6.80324C10.3996 7.11949 10.8659 7.07324 11.3759 6.89949C11.9546 6.70324 12.3971 6.24824 12.4146 5.81699C12.4284 5.46324 11.6759 5.28949 10.9009 5.55324ZM13.2509 9.59949C12.6521 10.087 12.4771 10.5757 12.7234 10.8045C12.9696 11.0332 13.5596 11.1382 14.1046 10.7607C14.6709 10.3682 14.7121 9.92324 14.6496 9.56449C14.5796 9.16074 13.8659 9.09824 13.2509 9.59949Z" fill="#FF8B0D"/>
</svg>
