<svg width="18" height="24" viewBox="0 0 18 24" fill="none" xmlns="http://www.w3.org/2000/svg">
<path d="M9 23.9988C13.9706 23.9988 18 23.1255 18 22.0482C18 20.971 13.9706 20.0977 9 20.0977C4.02944 20.0977 0 20.971 0 22.0482C0 23.1255 4.02944 23.9988 9 23.9988Z" fill="url(#paint0_radial_453_9135)"/>
<path d="M11.5513 0.285156H8.99733H6.4429C5.44716 0.475638 5.83683 2.44389 5.83683 2.44389H8.99733H12.1576C12.1576 2.44389 12.5473 0.475638 11.5513 0.285156Z" fill="url(#paint1_linear_453_9135)"/>
<path d="M5.91797 1.26953H12.0865V1.46001H5.91797V1.26953Z" fill="#C0C1C2"/>
<path d="M12.1696 2.73018H5.84886C5.65529 2.73018 5.49115 2.62601 5.46325 2.48556C5.38967 2.11465 5.08778 0.252053 6.3565 0.00930087C6.38872 0.00316229 6.4217 0 6.45493 0H11.5633C11.5963 0 11.6298 0.00316229 11.6617 0.00930087C12.9307 0.251868 12.6288 2.11465 12.5552 2.48556C12.5273 2.62601 12.3634 2.73018 12.1696 2.73018ZM6.19489 2.15873H11.8236C11.9169 1.43754 11.8114 0.681196 11.4994 0.571445H6.51911C6.20707 0.681196 6.10154 1.43754 6.19489 2.15873Z" fill="#230B00"/>
<path d="M15.5757 10.1282C13.879 7.94324 12.1549 2.44531 12.1549 2.44531H8.9952H5.8347C5.8347 2.44531 4.11111 7.94324 2.41416 10.1282C0.639071 12.4138 1.25478 17.3593 1.29816 18.2484C1.34155 19.1376 1.27685 22.6366 3.79957 22.6366H8.99494H14.1906C16.7133 22.6366 16.6483 19.1376 16.692 18.2484C16.7351 17.3593 17.3506 12.4138 15.5757 10.1282Z" fill="url(#paint2_linear_453_9135)"/>
<path d="M14.1952 22.9209H3.80424C1.07222 22.9209 0.962625 19.6864 0.921527 18.4688L0.913409 18.2571C0.908843 18.1659 0.898441 18.0316 0.884995 17.8609C0.761447 16.2872 0.432915 12.1062 2.08014 9.98544C3.7294 7.86205 5.44258 2.43444 5.45958 2.37994C5.50017 2.2501 5.65772 2.1582 5.83936 2.1582H12.1596C12.3412 2.1582 12.4985 2.2501 12.5391 2.37994C12.5564 2.43444 14.2703 7.86205 15.9188 9.98544C17.5653 12.1059 17.238 16.286 17.1147 17.8597C17.101 18.0309 17.0904 18.1659 17.0863 18.2571L17.0782 18.4695C17.0366 19.6872 16.9265 22.9209 14.1952 22.9209ZM6.1481 2.72965C5.80257 3.79516 4.28828 8.29715 2.7575 10.2682C1.22444 12.2424 1.55449 16.4464 1.66307 17.8281C1.67677 18.0041 1.68768 18.1429 1.69225 18.237L1.70062 18.4543C1.73309 19.4178 1.83228 22.3495 3.80424 22.3495H14.1952C16.1664 22.3495 16.2659 19.4186 16.2989 18.4554L16.307 18.2366C16.3115 18.1425 16.3227 18.0033 16.3364 17.827C16.445 16.4456 16.7743 12.2416 15.242 10.2682C13.7112 8.29715 12.1966 3.79516 11.8506 2.72965H6.1481Z" fill="#230B00"/>
<path d="M9.96749 1.93668H8.04831C7.65559 1.93668 7.33594 1.68035 7.33594 1.36523H7.59572C7.59572 1.57525 7.79867 1.7462 8.04831 1.7462H9.96749C10.2171 1.7462 10.4206 1.57525 10.4206 1.36523H10.6804C10.6804 1.68035 10.3607 1.93668 9.96749 1.93668Z" fill="#C0C1C2"/>
<path opacity="0.59" d="M6.67293 3.20703H9.01071C9.01071 3.20703 7.92871 8.25498 6.45653 10.2867C4.98436 12.3183 3.12276 11.9378 2.73309 14.2868C2.34341 16.6358 2.64632 19.9692 2.64632 19.9692L2.34341 19.4614C2.34341 19.4614 1.00087 12.7949 3.29578 10.509C5.59068 8.22318 6.67293 3.20703 6.67293 3.20703Z" fill="white"/>
<path opacity="0.19" d="M9.46875 11.539C9.46875 11.539 14.4211 11.4945 14.7671 11.8121C15.1132 12.1296 15.8062 15.9074 15.8062 15.9074C15.8062 15.9074 16.1097 11.8439 15.0269 11.3359C13.9441 10.8279 10.6106 10.9834 10.6106 10.9834L9.46875 11.539Z" fill="white"/>
<path d="M10.7339 21.5676H7.28979C5.70801 21.5676 4.30484 20.4961 4.09504 19.1278L3.52118 15.3911C3.41641 14.7065 3.70359 14.0291 4.30941 13.532C4.91548 13.035 5.80163 12.75 6.7408 12.75H11.2621C12.2226 12.75 13.109 13.035 13.7148 13.5324C14.3206 14.0294 14.6078 14.7069 14.5028 15.3911L13.9289 19.1282C13.7189 20.4961 12.3154 21.5676 10.7339 21.5676ZM6.7616 14.5514C6.49649 14.5514 6.28364 14.6158 6.14107 14.7326C5.99875 14.8494 5.93532 15.0116 5.96272 15.1898L6.53657 18.9265C6.61497 19.4392 7.07542 19.7662 7.28979 19.7662H10.7339C10.9485 19.7662 11.4087 19.4392 11.4874 18.9265L12.0612 15.1894C12.0886 15.0116 12.0252 14.8494 11.8831 14.7326C11.7406 14.6158 11.5275 14.5514 11.2834 14.5514H6.7616Z" fill="white"/>
<path d="M10.7234 21.3872H7.27926C5.82078 21.3872 4.52467 20.3856 4.32882 19.1073L3.75497 15.3706C3.65628 14.7277 3.91454 14.1172 4.48205 13.6518C5.04981 13.186 5.84818 12.9297 6.73027 12.9297H11.2516C12.1552 12.9297 12.9534 13.1864 13.5211 13.6518C14.0884 14.1176 14.3466 14.7277 14.2482 15.3706L13.6743 19.1077C13.478 20.3856 12.1816 21.3872 10.7234 21.3872ZM6.75108 14.371C6.41519 14.371 6.13714 14.4565 5.94738 14.612C5.75787 14.7675 5.67288 14.98 5.70789 15.2095L6.28174 18.9462C6.37536 19.5567 6.935 19.9459 7.27926 19.9459H10.7234C11.0674 19.9459 11.6276 19.5564 11.7209 18.9462L12.2948 15.2091C12.3303 14.9796 12.245 14.7679 12.0558 14.612C11.866 14.4565 11.588 14.371 11.2729 14.371H6.75108Z" fill="#00893A"/>
<path d="M10.7242 21.0275H7.28009C6.08799 21.0275 4.98341 20.1487 4.81775 19.068L4.2439 15.3309C4.16119 14.7914 4.37632 14.2806 4.84921 13.8926C5.32234 13.5046 5.99082 13.291 6.7311 13.291H11.2524C12.014 13.291 12.6822 13.5046 13.1556 13.893C13.6285 14.281 13.8436 14.7918 13.7604 15.3309L13.1866 19.068C13.0206 20.1487 11.9161 21.0275 10.7242 21.0275ZM6.7519 14.0113C6.2742 14.0113 5.86601 14.1396 5.58187 14.3729C5.29799 14.6058 5.16962 14.9176 5.22061 15.2505L5.79446 18.9876C5.90406 19.7027 6.58446 20.3072 7.28009 20.3072H10.7242C11.4198 20.3072 12.1002 19.7027 12.2104 18.9876L12.7842 15.2505C12.8349 14.9176 12.7071 14.6062 12.4229 14.3729C12.1388 14.14 11.7304 14.0113 11.2737 14.0113H6.7519Z" fill="#804F21"/>
<path d="M11.2529 13.6523C10.0154 13.6523 7.9902 13.6523 6.75243 13.6523H6.73163C5.49386 13.6523 4.59452 14.3901 4.73278 15.2919L5.30663 19.029C5.4449 19.9308 6.33333 20.6685 7.28062 20.6685C8.22791 20.6685 9.77797 20.6685 10.7247 20.6685C11.672 20.6685 12.5605 19.9308 12.699 19.029L13.2728 15.2919C13.4114 14.3901 12.5118 13.6523 11.2742 13.6523H11.2529Z" fill="white"/>
<path d="M6.48474 14.821C6.54004 14.821 6.56719 14.8165 6.58545 14.812C6.60397 14.8072 6.61387 14.8027 6.63239 14.8027C6.7189 14.8027 6.77014 14.9713 6.77014 15.0453C6.77014 15.1271 6.7331 15.2001 6.65217 15.2001C6.54435 15.2001 6.56287 15.0081 6.50047 15.0081C6.45505 15.0081 6.45353 15.0732 6.44212 15.1844C6.43374 15.2775 6.40381 15.517 6.40381 15.6484C6.40381 15.7812 6.51188 15.7135 6.51188 15.8061C6.51188 15.8526 6.46064 15.9174 6.16559 15.9174C5.91012 15.9174 5.90581 15.8448 5.90581 15.8124C5.90581 15.7194 6.00653 15.7659 6.03215 15.6915C6.06614 15.5926 6.11587 15.0825 6.11587 15.0594C6.11587 15.036 6.10724 15.0081 6.08187 15.0081C6.01084 15.0081 6.02784 15.2001 5.9015 15.2001C5.8363 15.2001 5.80078 15.1506 5.80078 15.084C5.80078 14.9865 5.88323 14.8027 5.98801 14.8027C6.00221 14.8027 6.01515 14.8072 6.02936 14.812C6.04483 14.8165 6.06056 14.821 6.08035 14.821H6.48474Z" fill="black"/>
<path d="M7.17767 15.928C6.93641 15.928 6.75781 15.7781 6.75781 15.5043C6.75781 15.1192 7.03434 14.8008 7.38215 14.8008C7.62341 14.8008 7.80227 14.9507 7.80227 15.2245C7.80227 15.6096 7.52549 15.928 7.17767 15.928ZM7.42046 15.1966C7.42046 15.1364 7.41614 14.9928 7.32964 15.0002C7.17767 15.0002 7.13937 15.4132 7.13937 15.5322C7.13937 15.5925 7.14368 15.7364 7.23019 15.7286C7.38215 15.7286 7.42046 15.3157 7.42046 15.1966Z" fill="black"/>
<path d="M8.47048 15.6669C8.44917 15.7041 8.40528 15.783 8.35987 15.783C8.31167 15.783 8.30026 15.7301 8.28757 15.6899L8.23074 15.5028C8.22795 15.492 8.20106 15.3901 8.18381 15.3901C8.16555 15.3901 8.15971 15.4381 8.15692 15.4489C8.15413 15.4641 8.11582 15.6546 8.11582 15.7026C8.11582 15.7703 8.18533 15.758 8.18533 15.8183C8.18533 15.8693 8.16681 15.9173 7.94686 15.9173C7.88724 15.9173 7.76953 15.9158 7.76953 15.8246C7.76953 15.7193 7.84894 15.7811 7.88014 15.6885C7.94407 15.5028 8.01511 15.2573 8.0179 15.0839C8.01942 14.9648 7.90018 15.0281 7.90018 14.9325C7.90018 14.9016 7.91566 14.8086 8.19954 14.8086C8.31446 14.8086 8.33577 14.835 8.37839 14.9448C8.4167 15.0422 8.45501 15.2524 8.49332 15.2524C8.53873 15.2524 8.66507 14.9741 8.68333 14.9384C8.74295 14.8209 8.8013 14.8086 8.91749 14.8086C8.98294 14.8086 9.12907 14.8101 9.12907 14.9124C9.12907 15.0329 9.02252 14.9276 9.00273 15.107C8.99005 15.2881 8.97 15.4719 8.97 15.6546C8.97 15.7565 9.04966 15.7409 9.04966 15.8016C9.04966 15.8894 8.92764 15.9173 8.73585 15.9173C8.67217 15.9173 8.523 15.9158 8.523 15.8153C8.523 15.7394 8.60114 15.7595 8.61813 15.7149C8.64097 15.6531 8.66354 15.4827 8.66354 15.4132C8.66354 15.4024 8.66507 15.3823 8.64934 15.3823C8.63082 15.3823 8.59124 15.4582 8.58135 15.4753L8.47048 15.6669Z" fill="black"/>
<path d="M9.47785 15.6498C9.40682 15.6561 9.3954 15.6777 9.3954 15.7178C9.3954 15.7673 9.47633 15.7316 9.47633 15.8153C9.47633 15.8693 9.45502 15.9187 9.21249 15.9187C9.14298 15.9187 9.03516 15.9187 9.03516 15.8168C9.03516 15.7178 9.10315 15.7874 9.16429 15.6777C9.29189 15.4455 9.47201 15.1706 9.52148 14.9262C9.5428 14.8194 9.5981 14.8008 9.68639 14.8008C9.81678 14.8008 9.87057 14.8782 9.91166 15.0035C9.95428 15.1334 10.0365 15.5445 10.0608 15.6591C10.0862 15.7826 10.1643 15.7056 10.1643 15.809C10.1643 15.9295 9.93602 15.9187 9.86498 15.9187C9.80664 15.9187 9.64376 15.9295 9.64376 15.8291C9.64376 15.7394 9.73459 15.7781 9.73459 15.7056C9.73459 15.6576 9.70008 15.6606 9.66761 15.6498H9.47785ZM9.64224 15.4719C9.68334 15.469 9.68892 15.4567 9.68892 15.4318C9.68892 15.3685 9.64376 15.2152 9.61941 15.2152C9.58389 15.2152 9.50753 15.4195 9.50753 15.4455C9.50753 15.4626 9.52859 15.469 9.5499 15.4719H9.64224Z" fill="black"/>
<path d="M10.9144 14.821C10.9697 14.821 10.9966 14.8165 11.0154 14.812C11.0337 14.8072 11.0438 14.8027 11.0621 14.8027C11.1488 14.8027 11.1996 14.9713 11.1996 15.0453C11.1996 15.1271 11.163 15.2001 11.0819 15.2001C10.9743 15.2001 10.9926 15.0081 10.9302 15.0081C10.8845 15.0081 10.8835 15.0732 10.8718 15.1844C10.8632 15.2775 10.8337 15.517 10.8337 15.6484C10.8337 15.7812 10.9413 15.7135 10.9413 15.8061C10.9413 15.8526 10.8906 15.9174 10.5953 15.9174C10.3396 15.9174 10.3355 15.8448 10.3355 15.8124C10.3355 15.7194 10.4365 15.7659 10.4618 15.6915C10.4958 15.5926 10.5456 15.0825 10.5456 15.0594C10.5456 15.036 10.5369 15.0081 10.5116 15.0081C10.4405 15.0081 10.4578 15.2001 10.3314 15.2001C10.266 15.2001 10.2305 15.1506 10.2305 15.084C10.2305 14.9865 10.3127 14.8027 10.4177 14.8027C10.4319 14.8027 10.4446 14.8072 10.4588 14.812C10.4745 14.8165 10.4903 14.821 10.51 14.821H10.9144Z" fill="black"/>
<path d="M11.6115 15.928C11.3705 15.928 11.1914 15.7781 11.1914 15.5043C11.1914 15.1192 11.4684 14.8008 11.816 14.8008C12.057 14.8008 12.2361 14.9507 12.2361 15.2245C12.2361 15.6096 11.9591 15.928 11.6115 15.928ZM11.8541 15.1966C11.8541 15.1364 11.85 14.9928 11.7632 15.0002C11.6115 15.0002 11.5735 15.4132 11.5735 15.5322C11.5735 15.5925 11.5775 15.7364 11.6643 15.7286C11.816 15.7286 11.8541 15.3157 11.8541 15.1966Z" fill="black"/>
<path d="M6.20001 16.6451C6.14877 16.6916 6.10335 16.7381 6.10335 16.7567C6.10335 16.7705 6.11908 16.8028 6.12466 16.817L6.32483 17.2173C6.36593 17.2869 6.42833 17.2854 6.42833 17.3442C6.42833 17.3966 6.41692 17.4368 6.19697 17.4368C6.04957 17.4368 6.04095 17.4089 5.98133 17.2683L5.88493 17.0659C5.8763 17.0488 5.8522 16.9915 5.83089 16.9915C5.7941 16.9915 5.79968 17.0752 5.79842 17.0982C5.79842 17.1321 5.79537 17.1786 5.79968 17.211C5.80958 17.2731 5.8692 17.2653 5.8692 17.3211C5.8692 17.4401 5.66929 17.4368 5.59242 17.4368C5.3542 17.4368 5.35547 17.3706 5.35547 17.3334C5.35547 17.2545 5.42498 17.3006 5.4506 17.2002C5.49043 17.0502 5.53305 16.7318 5.53305 16.5726C5.53305 16.4937 5.45339 16.5275 5.45339 16.4442C5.45339 16.3482 5.60815 16.3281 5.70886 16.3281C5.96281 16.3281 5.95291 16.3962 5.95291 16.4211C5.95291 16.5108 5.88213 16.4673 5.8593 16.5417C5.85093 16.5755 5.83799 16.6607 5.83799 16.6946C5.83799 16.7069 5.83672 16.7411 5.8522 16.7411C5.87782 16.7411 6.07088 16.5476 6.07088 16.5074C6.07088 16.4888 6.04374 16.4673 6.04374 16.4271C6.04374 16.3854 6.06226 16.3281 6.28931 16.3281C6.45244 16.3281 6.47375 16.3839 6.47375 16.4319C6.47375 16.5353 6.39155 16.4751 6.32052 16.5383L6.20001 16.6451Z" fill="black"/>
<path d="M6.75761 17.4246C6.69368 17.4246 6.62848 17.4384 6.56455 17.4384C6.47373 17.4384 6.44531 17.3982 6.44531 17.3472C6.44531 17.2546 6.53334 17.2977 6.56455 17.1988C6.59727 17.0905 6.647 16.7196 6.647 16.6035C6.647 16.483 6.55897 16.5276 6.55897 16.4428C6.55897 16.3531 6.63406 16.3331 6.7023 16.336C6.73782 16.3375 6.77308 16.339 6.81012 16.339C6.84691 16.3405 6.88395 16.3405 6.92073 16.3405H7.14347C7.19472 16.3405 7.22592 16.336 7.24724 16.3316C7.26855 16.3267 7.28123 16.3223 7.29544 16.3223C7.34364 16.3223 7.41467 16.4071 7.41467 16.5526C7.41467 16.6098 7.38905 16.6716 7.32943 16.6716C7.21451 16.6716 7.27971 16.5183 7.111 16.5183C6.96767 16.5183 6.98619 16.5462 6.97046 16.7103C6.96614 16.7706 6.95473 16.7828 7.00166 16.7828C7.08538 16.7828 7.03718 16.6407 7.12521 16.6407C7.21172 16.6407 7.22009 16.7642 7.22009 16.8338C7.22009 16.916 7.19472 17.1169 7.09527 17.1169C6.99024 17.1169 7.07269 16.9607 6.98466 16.9607C6.92505 16.9607 6.94077 17.1047 6.94077 17.1526C6.94077 17.2497 6.94204 17.2468 7.03566 17.2468C7.25713 17.2468 7.20614 17.0474 7.32106 17.0474C7.38905 17.0474 7.40605 17.1076 7.40605 17.1709C7.40605 17.3149 7.30812 17.4354 7.25561 17.4354C7.24724 17.4354 7.23861 17.4324 7.22313 17.4291C7.20614 17.4276 7.18178 17.4246 7.13637 17.4246H6.75761Z" fill="black"/>
<path d="M8.17224 16.3405C8.22754 16.3405 8.25469 16.336 8.27295 16.3316C8.29147 16.3267 8.30137 16.3223 8.31989 16.3223C8.4064 16.3223 8.45764 16.4908 8.45764 16.5648C8.45764 16.6467 8.4206 16.7196 8.33967 16.7196C8.23185 16.7196 8.25037 16.5276 8.18797 16.5276C8.14255 16.5276 8.14103 16.5927 8.12962 16.704C8.12124 16.797 8.09131 17.0366 8.09131 17.1679C8.09131 17.3007 8.19938 17.233 8.19938 17.3256C8.19938 17.3721 8.14814 17.4369 7.85309 17.4369C7.59762 17.4369 7.59331 17.3643 7.59331 17.332C7.59331 17.239 7.69403 17.2855 7.71965 17.2111C7.75364 17.1121 7.80337 16.602 7.80337 16.579C7.80337 16.5555 7.79474 16.5276 7.76937 16.5276C7.69834 16.5276 7.71534 16.7196 7.589 16.7196C7.5238 16.7196 7.48828 16.6701 7.48828 16.6035C7.48828 16.5061 7.57073 16.3223 7.67551 16.3223C7.68971 16.3223 7.70265 16.3267 7.71686 16.3316C7.73233 16.336 7.74806 16.3405 7.76785 16.3405H8.17224Z" fill="black"/>
<path d="M8.99496 17.186C9.06727 17.186 9.11547 17.1428 9.16367 17.09C9.1936 17.0576 9.24181 16.9866 9.2928 16.9866C9.35115 16.9866 9.37652 17.0312 9.37652 17.09C9.37652 17.1722 9.31842 17.3251 9.23039 17.3315C9.20071 17.3344 9.20071 17.3344 9.17229 17.3501C9.06168 17.4133 8.97923 17.4457 8.85163 17.4457C8.61595 17.4457 8.44141 17.2913 8.44141 17.0253C8.44141 16.6756 8.69408 16.3232 9.03733 16.3184C9.13246 16.3169 9.19208 16.3541 9.20781 16.3541C9.22481 16.3541 9.24891 16.3385 9.2687 16.3385C9.35115 16.3385 9.41787 16.4854 9.41787 16.5814C9.41787 16.6681 9.37373 16.7451 9.28722 16.7451C9.1553 16.7451 9.17509 16.5427 9.04748 16.5427C8.90541 16.5427 8.843 16.8411 8.843 16.9542C8.843 17.0591 8.88004 17.186 8.99496 17.186Z" fill="black"/>
<path d="M9.86863 17.2281C9.86863 17.2917 9.93104 17.2623 9.93104 17.3319C9.93104 17.3873 9.89958 17.4368 9.68851 17.4368C9.51549 17.4368 9.42188 17.4275 9.42188 17.3378C9.42188 17.2697 9.50001 17.2731 9.5127 17.2266C9.57637 16.9915 9.59312 16.7303 9.59312 16.574C9.59312 16.4844 9.5127 16.5309 9.5127 16.4457C9.5127 16.4286 9.49139 16.3281 9.82195 16.3281C9.99344 16.3281 10.029 16.3638 10.029 16.4193C10.029 16.5089 9.94524 16.4814 9.93256 16.5711C9.92089 16.6514 9.91378 16.7054 9.91378 16.7381C9.91378 16.7597 9.90262 16.7828 10.0345 16.7828C10.0604 16.7828 10.1213 16.7798 10.1325 16.7455C10.1426 16.7162 10.1497 16.5956 10.1497 16.5603C10.1497 16.4751 10.0873 16.5089 10.0873 16.4334C10.0873 16.3545 10.1426 16.3281 10.3765 16.3281C10.5668 16.3281 10.5967 16.3638 10.5967 16.4163C10.5967 16.5182 10.5059 16.452 10.4917 16.5711C10.4673 16.7627 10.4318 16.9948 10.4262 17.1942C10.4237 17.3084 10.5029 17.2311 10.5029 17.3334C10.5029 17.3921 10.4562 17.4368 10.2619 17.4368C10.0574 17.4368 9.98482 17.4275 9.98482 17.3378C9.98482 17.2575 10.0589 17.2962 10.0716 17.2251C10.0914 17.1154 10.1025 17.0551 10.1025 17.0101C10.1025 16.9621 10.0416 16.9606 10.0107 16.9606C9.88994 16.9606 9.89247 16.9792 9.88283 17.0409L9.86863 17.2281Z" fill="black"/>
<path d="M11.5812 16.9003C11.5442 17.1786 11.493 17.4461 11.1028 17.4461C10.8745 17.4461 10.674 17.3657 10.674 17.1183C10.674 16.939 10.7324 16.7411 10.7309 16.5819C10.7298 16.4766 10.6375 16.5476 10.6375 16.455C10.6375 16.4427 10.6045 16.3281 10.9668 16.3281C11.1911 16.3281 11.1966 16.3917 11.1966 16.4349C11.1966 16.5432 11.086 16.458 11.0718 16.6391C11.0307 16.9978 11.0363 16.9018 11.0246 17.0502C11.0165 17.1633 11.0561 17.2266 11.1566 17.2266C11.2489 17.2266 11.3113 17.1801 11.3428 17.086C11.3879 16.9528 11.4077 16.7225 11.4077 16.5804C11.4077 16.4613 11.2961 16.5368 11.2961 16.4256C11.2961 16.3668 11.3341 16.3281 11.5198 16.3281C11.7583 16.3281 11.7487 16.3992 11.7487 16.4226C11.7487 16.5353 11.6421 16.458 11.6249 16.5833L11.5812 16.9003Z" fill="black"/>
<path d="M12.1402 17.1468C12.1174 17.3231 12.2325 17.2227 12.2325 17.3291C12.2325 17.408 12.1458 17.4359 11.923 17.4359C11.6719 17.4359 11.6719 17.3711 11.6719 17.3324C11.6719 17.2379 11.747 17.3075 11.7744 17.2071C11.8109 17.0694 11.8637 16.6843 11.8637 16.5437C11.8637 16.4678 11.7627 16.5266 11.7627 16.4325C11.7627 16.3458 11.8535 16.332 11.9144 16.332C11.9489 16.332 11.991 16.3335 12.0311 16.335C12.0722 16.338 12.1092 16.3395 12.1331 16.3395C12.1701 16.3395 12.2072 16.338 12.2452 16.335C12.2823 16.3335 12.3193 16.332 12.3558 16.332C12.5319 16.332 12.6684 16.3983 12.6684 16.6163C12.6684 16.8205 12.542 17.0307 12.2143 17.0307C12.1914 17.0307 12.1701 17.0292 12.1473 17.0292L12.1402 17.1468ZM12.1727 16.7495C12.1701 16.7725 12.163 16.8205 12.163 16.8406C12.163 16.8655 12.1686 16.867 12.1899 16.867C12.3005 16.867 12.3203 16.6706 12.3203 16.5824C12.3203 16.5207 12.2949 16.4849 12.2381 16.4849C12.2026 16.4849 12.2011 16.5236 12.1884 16.6226L12.1727 16.7495Z" fill="black"/>
<path d="M9.051 18.6836L8.38226 18.1937H7.68359C7.68359 18.1937 8.59486 17.4578 9.051 18.6836Z" fill="url(#paint3_linear_453_9135)"/>
<path d="M9.0452 18.7489C9.04368 18.7489 9.04216 18.7489 9.04063 18.7489C9.01704 18.7489 8.9937 18.7422 8.9762 18.7292L8.3341 18.2589H7.67323C7.63721 18.2589 7.60448 18.2433 7.58977 18.2191C7.57531 18.1949 7.58139 18.1667 7.60575 18.147C7.61793 18.1373 7.90815 17.9062 8.2651 17.9062C8.64589 17.9062 8.93383 18.1548 9.12131 18.6451C9.13095 18.6559 9.13628 18.6685 9.13628 18.6819C9.13628 18.7188 9.09543 18.7489 9.0452 18.7489ZM7.9254 18.125H8.3719C8.396 18.125 8.41934 18.1321 8.43634 18.1447L8.82829 18.4319C8.70474 18.2199 8.52386 18.0398 8.2651 18.0398C8.1385 18.0398 8.01851 18.0807 7.9254 18.125Z" fill="#230B00"/>
<path d="M9 18.6194C9 18.6194 9.45614 18.0401 10.0028 18.129C10.0028 18.129 9.03095 17.728 9 18.6194Z" fill="url(#paint4_linear_453_9135)"/>
<path d="M8.99345 18.687C8.98533 18.687 8.97696 18.6862 8.96884 18.6844C8.9285 18.6762 8.90136 18.649 8.90237 18.6181C8.92191 18.0567 9.31361 17.9727 9.54523 17.9727C9.79943 17.9727 10.0313 18.0675 10.0409 18.0712C10.0805 18.0876 10.0978 18.1226 10.0815 18.1535C10.0653 18.1847 10.0201 18.2026 9.97651 18.1948C9.94505 18.1899 9.91308 18.1873 9.88112 18.1873C9.44451 18.1873 9.07615 18.6486 9.07235 18.6535C9.05586 18.6743 9.02541 18.687 8.99345 18.687ZM9.54523 18.1066C9.33593 18.1066 9.19691 18.1948 9.13019 18.3692C9.24359 18.2733 9.39606 18.1683 9.57415 18.107C9.56451 18.1066 9.55487 18.1066 9.54523 18.1066Z" fill="#230B00"/>
<path d="M8.99331 18.5327C8.99331 18.5327 9.01462 17.4467 8.61328 17.7957L8.99331 18.5327Z" fill="url(#paint5_linear_453_9135)"/>
<path d="M9.0074 18.5938C8.97289 18.5938 8.94118 18.5782 8.9285 18.554L8.54847 17.817C8.53756 17.7958 8.54314 17.7723 8.56293 17.7552C8.63345 17.6938 8.70144 17.6641 8.77096 17.6641C8.80419 17.6641 8.85366 17.6715 8.90059 17.7065C9.09517 17.8508 9.09391 18.4204 9.09162 18.5328C9.09112 18.5625 9.06194 18.5878 9.02186 18.593C9.01704 18.5934 9.01222 18.5938 9.0074 18.5938ZM8.72478 17.8092L8.90288 18.1544C8.87446 17.9427 8.82119 17.7976 8.77096 17.7876C8.76588 17.7876 8.75015 17.792 8.72478 17.8092Z" fill="#230B00"/>
<path d="M10.9294 19.1888C10.9294 18.6639 10.3499 18.2383 9.63454 18.2383C9.52037 18.2383 9.41256 18.2524 9.30803 18.2721C9.24004 18.2643 9.17104 18.2573 9.10001 18.2573C8.97671 18.2573 8.86001 18.2744 8.74687 18.2978C8.62103 18.268 8.48962 18.2476 8.35009 18.2476C7.64127 18.2476 7.06641 18.6691 7.06641 19.1888C7.06641 19.6781 7.57734 20.075 8.22781 20.1208C8.44091 20.2019 8.7012 20.2514 8.98534 20.2514C9.25628 20.2514 9.50693 20.2075 9.71369 20.1331C10.3916 20.1025 10.9294 19.6933 10.9294 19.1888Z" fill="url(#paint6_linear_453_9135)"/>
<path d="M8.99139 20.3083C8.71334 20.3083 8.44417 20.2629 8.21179 20.1766C7.51769 20.1223 6.99609 19.7 6.99609 19.1899C6.99609 18.6401 7.60622 18.1929 8.35614 18.1929C8.48197 18.1929 8.61237 18.2085 8.75444 18.2405C8.97211 18.1974 9.14969 18.1977 9.31053 18.2163C9.43256 18.194 9.53809 18.1836 9.64059 18.1836C10.3966 18.1836 11.0115 18.6349 11.0115 19.1899C11.0115 19.7145 10.4544 20.1513 9.73953 20.1892C9.51729 20.2674 9.25878 20.3083 8.99139 20.3083ZM8.35614 18.3045C7.69045 18.3045 7.14882 18.7018 7.14882 19.1899C7.14882 19.6457 7.6184 20.0226 8.24122 20.0661C8.25086 20.0668 8.26024 20.0691 8.26887 20.0724C8.68949 20.2316 9.26943 20.2339 9.68625 20.0839C9.69538 20.0806 9.70502 20.0787 9.71517 20.0784C10.3565 20.0493 10.8593 19.6591 10.8593 19.1899C10.8593 18.6966 10.3124 18.2952 9.64059 18.2952C9.54672 18.2952 9.44905 18.3056 9.33311 18.3276C9.32296 18.3294 9.31282 18.3305 9.30216 18.3283C9.14665 18.3108 8.98504 18.309 8.77372 18.3529C8.7585 18.3551 8.74353 18.3555 8.72958 18.3521C8.59436 18.3201 8.47208 18.3045 8.35614 18.3045Z" fill="#230B00"/>
<path d="M8.8181 18.3165C8.8181 18.3165 8.91755 18.1 9.17023 18.276C9.42341 18.4512 9.56979 18.8615 9.56979 18.8615C9.56979 18.8615 8.77497 18.4865 8.8181 18.3165Z" fill="url(#paint7_linear_453_9135)"/>
<path d="M9.56748 18.927C9.56545 18.9266 9.56393 18.9266 9.56291 18.927C9.54566 18.927 9.52841 18.9233 9.51369 18.9162C9.25899 18.7961 8.67245 18.4962 8.72167 18.3027C8.75135 18.2361 8.83507 18.1387 8.98145 18.1387C9.0606 18.1387 9.14305 18.1681 9.22626 18.2261C9.46499 18.3913 9.6101 18.7362 9.64359 18.8232C9.65323 18.834 9.65881 18.8467 9.65881 18.86C9.65881 18.8969 9.61771 18.927 9.56748 18.927ZM8.98145 18.2722C8.93071 18.2722 8.89773 18.3362 8.89748 18.337C8.88682 18.382 9.10398 18.5379 9.39192 18.6926C9.32748 18.568 9.22753 18.411 9.10068 18.3232C9.03751 18.2789 8.9987 18.2722 8.98145 18.2722Z" fill="#230B00"/>
<path d="M8.06077 18.9198C8.22162 18.9198 8.35201 18.8337 8.35201 18.7275C8.35201 18.6213 8.22162 18.5352 8.06077 18.5352C7.89992 18.5352 7.76953 18.6213 7.76953 18.7275C7.76953 18.8337 7.89992 18.9198 8.06077 18.9198Z" fill="white"/>
<defs>
<radialGradient id="paint0_radial_453_9135" cx="0" cy="0" r="1" gradientUnits="userSpaceOnUse" gradientTransform="translate(8.99963 22.0481) scale(8.72547 1.83059)">
<stop stop-color="#595959"/>
<stop offset="0.444525" stop-color="#565656" stop-opacity="0.555475"/>
<stop offset="0.775315" stop-color="#4D4D4D" stop-opacity="0.224685"/>
<stop offset="1" stop-color="#414141" stop-opacity="0"/>
</radialGradient>
<linearGradient id="paint1_linear_453_9135" x1="8.99708" y1="0.761361" x2="8.99708" y2="2.63866" gradientUnits="userSpaceOnUse">
<stop stop-color="white"/>
<stop offset="0.206799" stop-color="#F6F7F6"/>
<stop offset="0.543975" stop-color="#DFE1DE"/>
<stop offset="0.967376" stop-color="#B8BDB6"/>
<stop offset="1" stop-color="#B5BAB3"/>
</linearGradient>
<linearGradient id="paint2_linear_453_9135" x1="4.09918" y1="3.58876" x2="8.53495" y2="24.927" gradientUnits="userSpaceOnUse">
<stop stop-color="#BF0000"/>
<stop offset="0.234656" stop-color="#B60000"/>
<stop offset="0.617231" stop-color="#9E0000"/>
<stop offset="1" stop-color="#7F0000"/>
</linearGradient>
<linearGradient id="paint3_linear_453_9135" x1="8.13567" y1="17.7331" x2="8.42787" y2="19.3873" gradientUnits="userSpaceOnUse">
<stop stop-color="#489F00"/>
<stop offset="0.234656" stop-color="#409600"/>
<stop offset="0.617231" stop-color="#2B7E00"/>
<stop offset="1" stop-color="#105F00"/>
</linearGradient>
<linearGradient id="paint4_linear_453_9135" x1="9.35086" y1="17.9151" x2="9.51958" y2="18.8703" gradientUnits="userSpaceOnUse">
<stop stop-color="#489F00"/>
<stop offset="0.234656" stop-color="#409600"/>
<stop offset="0.617231" stop-color="#2B7E00"/>
<stop offset="1" stop-color="#105F00"/>
</linearGradient>
<linearGradient id="paint5_linear_453_9135" x1="8.87807" y1="17.5614" x2="8.33828" y2="18.7173" gradientUnits="userSpaceOnUse">
<stop stop-color="#489F00"/>
<stop offset="0.234656" stop-color="#409600"/>
<stop offset="0.617231" stop-color="#2B7E00"/>
<stop offset="1" stop-color="#105F00"/>
</linearGradient>
<linearGradient id="paint6_linear_453_9135" x1="8.46146" y1="17.5541" x2="9.20441" y2="21.7601" gradientUnits="userSpaceOnUse">
<stop stop-color="#FF0000"/>
<stop offset="0.140915" stop-color="#F60000"/>
<stop offset="0.37077" stop-color="#DE0000"/>
<stop offset="0.6609" stop-color="#B60000"/>
<stop offset="0.997146" stop-color="#7F0000"/>
<stop offset="1" stop-color="#7F0000"/>
</linearGradient>
<linearGradient id="paint7_linear_453_9135" x1="8.98858" y1="17.9787" x2="9.24753" y2="19.4447" gradientUnits="userSpaceOnUse">
<stop stop-color="#489F00"/>
<stop offset="0.234656" stop-color="#409600"/>
<stop offset="0.617231" stop-color="#2B7E00"/>
<stop offset="1" stop-color="#105F00"/>
</linearGradient>
</defs>
</svg>
