<svg width="16" height="16" viewBox="0 0 16 16" fill="none" xmlns="http://www.w3.org/2000/svg">
<g clip-path="url(#clip0_3106_3050)">
<path d="M14.9696 8.67236C14.9696 8.67236 15.1834 7.04111 14.7946 6.30361C14.4059 5.56611 13.2059 3.93736 10.7171 3.64361C9.39712 3.48861 8.50337 3.66361 7.68837 3.75986C7.17212 3.82111 6.21087 3.50361 4.48462 3.89611C3.20462 4.18736 1.26212 5.31361 0.630867 7.74111C0.298367 9.01986 0.424617 10.4011 0.990867 11.5649C2.07837 13.7974 4.09712 14.3411 4.09712 14.3411L8.15462 14.6711L13.0671 12.5936L14.9696 8.67236Z" fill="#FF2A23"/>
<path d="M10.2527 14.8845C12.8352 14.3795 15.0677 12.0695 15.4564 9.62328C15.8202 7.33453 14.4827 5.80078 14.4827 5.80078C14.4827 5.80078 14.6352 7.02203 14.3502 8.32328C14.0439 9.71578 13.1577 12.037 10.3502 13.352C6.90391 14.9658 3.12891 13.902 3.12891 13.902C3.12891 13.902 5.69391 15.7758 10.2527 14.8845Z" fill="#DC0D27"/>
<path d="M3.1152 6.59583C2.42895 6.41833 1.5727 6.93708 1.44895 8.45583C1.3352 9.84708 2.08895 11.5233 2.8277 11.3233C3.4552 11.1533 2.85145 9.99083 3.0752 9.03708C3.30145 8.08333 4.16145 6.86708 3.1152 6.59583Z" fill="#FED3B0"/>
<path d="M3.98516 5.75562C3.88766 5.88187 4.11391 6.43687 5.26266 6.42937C6.41016 6.42187 6.60266 6.07562 7.11391 6.23062C7.62516 6.38562 8.02391 7.00062 8.58891 7.33687C9.37891 7.80687 10.5189 7.68687 10.5114 7.47812C10.5039 7.26812 10.2252 7.37562 9.98516 7.08187C9.74516 6.78687 9.32016 6.00812 9.32016 6.00812C9.32016 6.00812 9.43891 5.64312 9.69016 5.65687C10.2702 5.68812 10.9152 5.57312 11.2702 5.35062C11.6952 5.08562 11.8552 4.67687 11.7777 4.58312C11.7002 4.49062 11.4589 4.74062 11.3277 4.71687C11.1964 4.69312 10.3427 4.70937 10.3427 4.70937L9.31141 4.54187C9.31141 4.54187 9.45266 3.93812 9.73141 3.62812C10.0102 3.31812 10.4477 2.89187 10.4389 2.83812C10.4302 2.78437 10.0789 2.83187 10.0789 2.83187L8.99266 3.32812L8.23266 4.32812L6.79016 4.51437L5.40141 3.58312C5.40141 3.58312 4.60516 2.94062 4.56891 2.95562C4.36766 3.03812 4.67391 3.34437 4.90516 3.71437C5.10516 4.03562 5.14641 4.19687 5.41641 4.42062C5.68016 4.63812 6.12266 4.85437 6.12266 4.85437L5.80516 5.42812C5.80516 5.42812 4.78141 5.83187 4.60266 5.83187C4.42516 5.83312 4.03891 5.68687 3.98516 5.75562Z" fill="#BDCF44"/>
<path d="M7.18951 5.41044C7.60826 5.44169 7.91076 5.99794 8.28826 6.37669C8.83951 6.92794 9.27076 7.21544 9.73451 7.32419C9.96701 7.37794 10.5008 7.46669 10.5008 7.46669C10.5008 7.46669 10.5783 7.41294 10.3145 7.26544C10.0508 7.11794 9.89201 6.83544 9.85326 6.70419C9.81451 6.57294 9.69326 6.14169 9.43826 5.78419C9.18326 5.42669 8.89326 5.27544 8.98576 5.11294C9.07826 4.95044 9.87826 5.22544 10.6483 5.10169C11.6645 4.93919 11.8195 4.61294 11.7733 4.57419C11.727 4.53544 11.0983 4.72169 10.7808 4.65169C10.4633 4.58169 10.1908 4.36419 9.71076 4.36419C9.38326 4.36419 9.06326 4.48294 8.97701 4.30419C8.90451 4.15419 9.17701 3.65294 9.38451 3.46419C9.88826 3.00669 10.432 2.89794 10.432 2.83544C10.432 2.70669 9.54826 2.63419 8.93576 3.12294C8.32576 3.60919 8.44076 4.24794 7.64826 4.24794C7.38451 4.24794 7.28326 4.18544 7.28326 4.18544C7.28326 4.18544 6.92951 3.89419 6.45701 3.63794C5.98451 3.38169 5.62826 3.49544 5.35576 3.36419C5.08451 3.23294 4.60326 2.89294 4.55701 2.96169C4.51076 3.03044 4.91826 3.49544 5.43076 3.87544C5.94326 4.25544 6.51701 4.44919 6.35326 4.60419C6.19076 4.75919 5.91951 4.86044 5.66326 5.05419C5.40701 5.24794 5.18201 5.52669 4.87201 5.62794C4.56201 5.72919 4.05201 5.65794 3.98201 5.74294C3.91201 5.82794 4.52201 6.12169 5.47576 5.94419C6.42701 5.76669 6.42951 5.35419 7.18951 5.41044Z" fill="#94A61D"/>
<path d="M8.13958 0.617624C7.93083 0.607624 7.66708 0.772624 7.66708 0.772624C7.66708 0.772624 7.28458 1.23887 7.13333 2.39637C7.06333 2.93137 7.13958 3.65012 7.12458 4.04637C7.10958 4.44137 7.02333 4.58887 7.04708 4.79137C7.07083 4.99262 7.28208 5.22012 7.77083 5.21512C8.16333 5.21137 8.36583 4.90762 8.35833 4.79887C8.35083 4.69012 8.01458 3.58137 8.10958 2.60387C8.19833 1.69512 8.52958 1.06762 8.54333 0.936374C8.55083 0.865124 8.45708 0.632624 8.13958 0.617624Z" fill="#728035"/>
</g>
<defs>
<clipPath id="clip0_3106_3050">
<rect width="16" height="16" fill="white"/>
</clipPath>
</defs>
</svg>
